#define colon0_width 7
#define colon0_height 27
static unsigned char colon0_bits[] = {
  0x00, 0x00, 0x00, 0x00, 0x00, 0x00, 0x00, 0x00, 0x1c, 0x3e, 0x3e, 0x3e,
  0x1c, 0x00, 0x00, 0x1c, 0x3e, 0x3e, 0x3e, 0x1c, 0x00, 0x00, 0x00, 0x00,
  0x00, 0x00, 0x00, };
