#define eight0_width 21
#define eight0_height 27
static unsigned char eight0_bits[] = {
 0x00,0x00,0x00,0x80,0x0f,0x00,0xe0,0x38,0x00,0x30,0x60,0x00,0x38,0xe0,0x00,
 0x38,0xc0,0x00,0x3c,0xc0,0x00,0x7c,0xc0,0x00,0x78,0xe0,0x00,0xf8,0x60,0x00,
 0xf0,0x31,0x00,0xe0,0x0f,0x00,0xc0,0x1f,0x00,0x80,0x3f,0x00,0x60,0xfe,0x00,
 0x30,0xf8,0x01,0x38,0xf0,0x01,0x3c,0xe0,0x03,0x1c,0xe0,0x03,0x1c,0xc0,0x03,
 0x1c,0xc0,0x03,0x3c,0xc0,0x03,0x38,0xe0,0x01,0x38,0xe0,0x01,0x70,0xf0,0x00,
 0xe0,0x3c,0x00,0x80,0x07,0x00};
