#define five0_width 21
#define five0_height 27
static unsigned char five0_bits[] = {
 0x00,0x00,0x00,0xf0,0xff,0x01,0xf0,0xff,0x01,0xf8,0xff,0x00,0x18,0x00,0x00,
 0x08,0x00,0x00,0x0c,0x00,0x00,0x0c,0x00,0x00,0xfc,0x03,0x00,0xfc,0x1f,0x00,
 0xfc,0x3f,0x00,0xfc,0x7f,0x00,0x00,0xfe,0x00,0x00,0xf0,0x00,0x00,0xe0,0x01,
 0x00,0xc0,0x01,0x00,0xc0,0x01,0x00,0x80,0x01,0x00,0x80,0x01,0x00,0x80,0x01,
 0x00,0x80,0x01,0x00,0xc0,0x00,0x18,0xc0,0x00,0x3c,0x70,0x00,0xfc,0x3c,0x00,
 0xf0,0x0f,0x00,0x00,0x00,0x00};
