#define four0_width 21
#define four0_height 27
static unsigned char four0_bits[] = {
 0x00,0x00,0x00,0x00,0x80,0x01,0x00,0xc0,0x01,0x00,0xe0,0x01,0x00,0xf0,0x01,
 0x00,0xf8,0x01,0x00,0xfc,0x01,0x00,0xee,0x01,0x00,0xe6,0x01,0x00,0xe7,0x01,
 0x80,0xe3,0x01,0xc0,0xe1,0x01,0xc0,0xe0,0x01,0xe0,0xe0,0x01,0x70,0xe0,0x01,
 0x38,0xe0,0x01,0x1c,0xe0,0x01,0xfc,0xff,0x07,0xfc,0xff,0x07,0xfc,0xff,0x07,
 0x00,0xe0,0x01,0x00,0xe0,0x01,0x00,0xe0,0x01,0x00,0xe0,0x01,0x00,0xe0,0x01,
 0x00,0xe0,0x01,0x00,0x00,0x00};
