#define nine0_width 21
#define nine0_height 27
static unsigned char nine0_bits[] = {
 0x00,0x00,0x00,0x00,0x1f,0x00,0xc0,0x71,0x00,0x60,0xf0,0x00,0x70,0xe0,0x00,
 0x70,0xe0,0x01,0x78,0xe0,0x01,0x78,0xe0,0x01,0x78,0xe0,0x03,0x78,0xe0,0x03,
 0x78,0xe0,0x03,0x78,0xe0,0x03,0x70,0xe0,0x03,0xf0,0xf0,0x03,0xe0,0xf1,0x01,
 0xc0,0xff,0x01,0x80,0xef,0x01,0x00,0xe0,0x01,0x00,0xf0,0x00,0x00,0xf0,0x00,
 0x00,0x78,0x00,0x00,0x3c,0x00,0x00,0x1e,0x00,0x80,0x0f,0x00,0xc0,0x03,0x00,
 0xf0,0x00,0x00,0x00,0x00,0x00};
