#define one0_width 21
#define one0_height 27
static unsigned char one0_bits[] = {
 0x00,0x00,0x00,0x00,0x1c,0x00,0x00,0x1e,0x00,0x00,0x1f,0x00,0x80,0x1f,0x00,
 0x00,0x1e,0x00,0x00,0x1e,0x00,0x00,0x1e,0x00,0x00,0x1e,0x00,0x00,0x1e,0x00,
 0x00,0x1e,0x00,0x00,0x1e,0x00,0x00,0x1e,0x00,0x00,0x1e,0x00,0x00,0x1e,0x00,
 0x00,0x1e,0x00,0x00,0x1e,0x00,0x00,0x1e,0x00,0x00,0x1e,0x00,0x00,0x1e,0x00,
 0x00,0x1e,0x00,0x00,0x1e,0x00,0x00,0x1e,0x00,0x00,0x1e,0x00,0x00,0x3f,0x00,
 0x80,0x7f,0x00,0x00,0x00,0x00};
