#define seven0_width 21
#define seven0_height 27
static unsigned char seven0_bits[] = {
 0x00,0x00,0x00,0xf8,0xff,0x03,0xfc,0xff,0x03,0xfc,0xff,0x03,0x04,0x80,0x01,
 0x00,0xc0,0x00,0x00,0x60,0x00,0x00,0x30,0x00,0x00,0x38,0x00,0x00,0x1c,0x00,
 0x00,0x0e,0x00,0x00,0x0f,0x00,0x00,0x0f,0x00,0x80,0x07,0x00,0x80,0x07,0x00,
 0x80,0x07,0x00,0xc0,0x03,0x00,0xc0,0x03,0x00,0xc0,0x03,0x00,0xe0,0x03,0x00,
 0xe0,0x01,0x00,0xe0,0x01,0x00,0xe0,0x01,0x00,0xe0,0x01,0x00,0xe0,0x01,0x00,
 0xe0,0x01,0x00,0x00,0x00,0x00};
