#define six0_width 21
#define six0_height 27
static unsigned char six0_bits[] = {
 0x00,0x00,0x00,0x00,0xf0,0x00,0x00,0x3c,0x00,0x00,0x0f,0x00,0x80,0x07,0x00,
 0xc0,0x03,0x00,0xe0,0x01,0x00,0xe0,0x00,0x00,0xf0,0x00,0x00,0x70,0x00,0x00,
 0x70,0x1f,0x00,0xf8,0x79,0x00,0xf8,0xf0,0x00,0x78,0xe0,0x00,0x78,0xe0,0x01,
 0x78,0xe0,0x01,0x78,0xe0,0x01,0x78,0xe0,0x01,0x78,0xe0,0x01,0x78,0xe0,0x01,
 0x78,0xe0,0x01,0x78,0xe0,0x00,0x70,0xe0,0x00,0xf0,0x70,0x00,0xe0,0x3d,0x00,
 0xc0,0x0f,0x00,0x00,0x00,0x00};
