#define three0_width 21
#define three0_height 27
static unsigned char three0_bits[] = {
 0x00,0x00,0x00,0x00,0x3f,0x00,0xc0,0x7f,0x00,0xe0,0xff,0x00,0x30,0xf8,0x01,
 0x18,0xf0,0x01,0x00,0xe0,0x01,0x00,0xe0,0x01,0x00,0xe0,0x00,0x00,0xf0,0x00,
 0x00,0x78,0x00,0x00,0x3f,0x00,0x00,0x7f,0x00,0x00,0xf8,0x00,0x00,0xf0,0x01,
 0x00,0xe0,0x01,0x00,0xc0,0x03,0x00,0xc0,0x03,0x00,0xc0,0x03,0x00,0xc0,0x03,
 0x00,0xc0,0x03,0x00,0xe0,0x01,0x38,0xf0,0x01,0xf8,0xf8,0x00,0xf0,0x7f,0x00,
 0xe0,0x1f,0x00,0x00,0x00,0x00};
