#define two0_width 21
#define two0_height 27
static unsigned char two0_bits[] = {
 0x00,0x00,0x00,0x00,0x3f,0x00,0xc0,0x7f,0x00,0xe0,0xff,0x00,0x30,0xf8,0x01,
 0x18,0xf0,0x01,0x00,0xe0,0x01,0x00,0xe0,0x01,0x00,0xe0,0x01,0x00,0xe0,0x01,
 0x00,0xf0,0x00,0x00,0x70,0x00,0x00,0x38,0x00,0x00,0x18,0x00,0x00,0x0c,0x00,
 0x00,0x06,0x00,0x00,0x03,0x00,0x80,0x01,0x00,0xc0,0x00,0x00,0x60,0x00,0x00,
 0x30,0x00,0x00,0x18,0x00,0x02,0xf8,0xff,0x03,0xfc,0xff,0x03,0xfc,0xff,0x03,
 0xfc,0xff,0x03,0x00,0x00,0x00};
