#define colon3_width 34
#define colon3_height 144
static unsigned char colon3_bits[] = {
   0x00, 0x00, 0x00, 0x00, 0x00, 0x00, 0x00, 0x00, 0x00, 0x00, 0x00, 0x00,
   0x00, 0x00, 0x00, 0x00, 0x00, 0x00, 0x00, 0x00, 0x00, 0x00, 0x00, 0x00,
   0x00, 0x00, 0x00, 0x00, 0x00, 0x00, 0x00, 0x00, 0x00, 0x00, 0x00, 0x00,
   0x00, 0x00, 0x00, 0x00, 0x00, 0x00, 0x00, 0x00, 0x00, 0x00, 0x00, 0x00,
   0x00, 0x00, 0x00, 0x00, 0x00, 0x00, 0x00, 0x00, 0x00, 0x00, 0x00, 0x00,
   0x00, 0x00, 0x00, 0x00, 0x00, 0x00, 0x00, 0x00, 0x00, 0x00, 0x00, 0x00,
   0x00, 0x00, 0x00, 0x00, 0x00, 0x00, 0x00, 0x00, 0x00, 0x00, 0x00, 0x00,
   0x00, 0x00, 0x00, 0x00, 0x00, 0x00, 0x00, 0x00, 0x00, 0x00, 0x00, 0x00,
   0x00, 0x00, 0x00, 0x00, 0x00, 0x00, 0x00, 0x00, 0x00, 0x00, 0x00, 0x00,
   0x00, 0x00, 0x00, 0x00, 0x00, 0x00, 0x00, 0x00, 0x00, 0x00, 0x00, 0x00,
   0x00, 0x00, 0x00, 0x00, 0x00, 0x00, 0x00, 0x00, 0x00, 0x00, 0x00, 0x00,
   0x00, 0x00, 0x00, 0x00, 0x00, 0x00, 0x00, 0x00, 0x00, 0x00, 0x00, 0x00,
   0x00, 0x00, 0x00, 0x00, 0x00, 0x00, 0x00, 0x00, 0x00, 0x00, 0x00, 0x00,
   0x00, 0x00, 0x00, 0x00, 0x00, 0x00, 0x00, 0x00, 0x00, 0x00, 0x00, 0x00,
   0x00, 0x00, 0x00, 0x00, 0x00, 0x00, 0x00, 0x00, 0x00, 0x00, 0x00, 0x00,
   0x00, 0x00, 0x00, 0x00, 0x00, 0x00, 0x00, 0x00, 0x00, 0x00, 0x00, 0x00,
   0x00, 0x00, 0x00, 0x00, 0x00, 0x00, 0x00, 0x00, 0x00, 0xf0, 0x3f, 0x00,
   0x00, 0x00, 0xfc, 0xff, 0x00, 0x00, 0x00, 0xff, 0xff, 0x03, 0x00, 0x80,
   0xff, 0xff, 0x07, 0x00, 0xc0, 0xff, 0xff, 0x0f, 0x00, 0xc0, 0xff, 0xff,
   0x0f, 0x00, 0xe0, 0xff, 0xff, 0x1f, 0x00, 0xe0, 0xff, 0xff, 0x1f, 0x00,
   0xf0, 0xff, 0xff, 0x3f, 0x00, 0xf0, 0xff, 0xff, 0x3f, 0x00, 0xf0, 0xff,
   0xff, 0x3f, 0x00, 0xf0, 0xff, 0xff, 0x3f, 0x00, 0xf0, 0xff, 0xff, 0x3f,
   0x00, 0xf0, 0xff, 0xff, 0x3f, 0x00, 0xf0, 0xff, 0xff, 0x3f, 0x00, 0xf0,
   0xff, 0xff, 0x3f, 0x00, 0xf0, 0xff, 0xff, 0x3f, 0x00, 0xf0, 0xff, 0xff,
   0x3f, 0x00, 0xe0, 0xff, 0xff, 0x1f, 0x00, 0xe0, 0xff, 0xff, 0x1f, 0x00,
   0xc0, 0xff, 0xff, 0x0f, 0x00, 0xc0, 0xff, 0xff, 0x0f, 0x00, 0x80, 0xff,
   0xff, 0x07, 0x00, 0x00, 0xff, 0xff, 0x03, 0x00, 0x00, 0xfc, 0xff, 0x00,
   0x00, 0x00, 0xf0, 0x3f, 0x00, 0x00, 0x00, 0x00, 0x00, 0x00, 0x00, 0x00,
   0x00, 0x00, 0x00, 0x00, 0x00, 0x00, 0x00, 0x00, 0x00, 0x00, 0x00, 0x00,
   0x00, 0x00, 0x00, 0x00, 0x00, 0x00, 0x00, 0x00, 0x00, 0x00, 0x00, 0x00,
   0x00, 0x00, 0x00, 0x00, 0x00, 0x00, 0x00, 0x00, 0x00, 0x00, 0x00, 0x00,
   0x00, 0x00, 0x00, 0x00, 0x00, 0x00, 0x00, 0x00, 0x00, 0x00, 0x00, 0x00,
   0x00, 0x00, 0x00, 0x00, 0x00, 0x00, 0x00, 0x00, 0x00, 0x00, 0x00, 0x00,
   0x00, 0x00, 0x00, 0x00, 0x00, 0xf0, 0x3f, 0x00, 0x00, 0x00, 0xfc, 0xff,
   0x00, 0x00, 0x00, 0xff, 0xff, 0x03, 0x00, 0x80, 0xff, 0xff, 0x07, 0x00,
   0xc0, 0xff, 0xff, 0x0f, 0x00, 0xc0, 0xff, 0xff, 0x0f, 0x00, 0xe0, 0xff,
   0xff, 0x1f, 0x00, 0xe0, 0xff, 0xff, 0x1f, 0x00, 0xf0, 0xff, 0xff, 0x3f,
   0x00, 0xf0, 0xff, 0xff, 0x3f, 0x00, 0xf0, 0xff, 0xff, 0x3f, 0x00, 0xf0,
   0xff, 0xff, 0x3f, 0x00, 0xf0, 0xff, 0xff, 0x3f, 0x00, 0xf0, 0xff, 0xff,
   0x3f, 0x00, 0xf0, 0xff, 0xff, 0x3f, 0x00, 0xf0, 0xff, 0xff, 0x3f, 0x00,
   0xf0, 0xff, 0xff, 0x3f, 0x00, 0xf0, 0xff, 0xff, 0x3f, 0x00, 0xe0, 0xff,
   0xff, 0x1f, 0x00, 0xe0, 0xff, 0xff, 0x1f, 0x00, 0xe0, 0xff, 0xff, 0x0f,
   0x00, 0xc0, 0xff, 0xff, 0x0f, 0x00, 0x80, 0xff, 0xff, 0x07, 0x00, 0x00,
   0xff, 0xff, 0x03, 0x00, 0x00, 0xfc, 0xff, 0x00, 0x00, 0x00, 0xf0, 0x3f,
   0x00, 0x00, 0x00, 0x00, 0x00, 0x00, 0x00, 0x00, 0x00, 0x00, 0x00, 0x00,
   0x00, 0x00, 0x00, 0x00, 0x00, 0x00, 0x00, 0x00, 0x00, 0x00, 0x00, 0x00,
   0x00, 0x00, 0x00, 0x00, 0x00, 0x00, 0x00, 0x00, 0x00, 0x00, 0x00, 0x00,
   0x00, 0x00, 0x00, 0x00, 0x00, 0x00, 0x00, 0x00, 0x00, 0x00, 0x00, 0x00,
   0x00, 0x00, 0x00, 0x00, 0x00, 0x00, 0x00, 0x00, 0x00, 0x00, 0x00, 0x00,
   0x00, 0x00, 0x00, 0x00, 0x00, 0x00, 0x00, 0x00, 0x00, 0x00, 0x00, 0x00,
   0x00, 0x00, 0x00, 0x00, 0x00, 0x00, 0x00, 0x00, 0x00, 0x00, 0x00, 0x00,
   0x00, 0x00, 0x00, 0x00, 0x00, 0x00, 0x00, 0x00, 0x00, 0x00, 0x00, 0x00,
   0x00, 0x00, 0x00, 0x00, 0x00, 0x00, 0x00, 0x00, 0x00, 0x00, 0x00, 0x00,
   0x00, 0x00, 0x00, 0x00, 0x00, 0x00, 0x00, 0x00, 0x00, 0x00, 0x00, 0x00,
   0x00, 0x00, 0x00, 0x00, 0x00, 0x00, 0x00, 0x00, 0x00, 0x00, 0x00, 0x00,
   0x00, 0x00, 0x00, 0x00, 0x00, 0x00, 0x00, 0x00, 0x00, 0x00, 0x00, 0x00,
   0x00, 0x00, 0x00, 0x00, 0x00, 0x00, 0x00, 0x00, 0x00, 0x00, 0x00, 0x00,
   0x00, 0x00, 0x00, 0x00, 0x00, 0x00, 0x00, 0x00, 0x00, 0x00, 0x00, 0x00,
   0x00, 0x00, 0x00, 0x00, 0x00, 0x00, 0x00, 0x00, 0x00, 0x00, 0x00, 0x00,
   0x00, 0x00, 0x00, 0x00, 0x00, 0x00, 0x00, 0x00, 0x00, 0x00, 0x00, 0x00};
