#define one1_width 30
#define one1_height 37
static unsigned char one1_bits[] = {
  0x00, 0x00, 0x00, 0x00, 0x00, 0xc0, 0x03, 0x00, 0x00, 0xf0, 0x03, 0x00,
  0x00, 0xfc, 0x03, 0x00, 0x00, 0xfe, 0x03, 0x00, 0x00, 0xf8, 0x03, 0x00,
  0x00, 0xf8, 0x03, 0x00, 0x00, 0xf8, 0x03, 0x00, 0x00, 0xf8, 0x03, 0x00,
  0x00, 0xf8, 0x03, 0x00, 0x00, 0xf8, 0x03, 0x00, 0x00, 0xf8, 0x03, 0x00,
  0x00, 0xf8, 0x03, 0x00, 0x00, 0xf8, 0x03, 0x00, 0x00, 0xf8, 0x03, 0x00,
  0x00, 0xf8, 0x03, 0x00, 0x00, 0xf8, 0x03, 0x00, 0x00, 0xf8, 0x03, 0x00,
  0x00, 0xf8, 0x03, 0x00, 0x00, 0xf8, 0x03, 0x00, 0x00, 0xf8, 0x03, 0x00,
  0x00, 0xf8, 0x03, 0x00, 0x00, 0xf8, 0x03, 0x00, 0x00, 0xf8, 0x03, 0x00,
  0x00, 0xf8, 0x03, 0x00, 0x00, 0xf8, 0x03, 0x00, 0x00, 0xf8, 0x03, 0x00,
  0x00, 0xf8, 0x03, 0x00, 0x00, 0xf8, 0x03, 0x00, 0x00, 0xf8, 0x03, 0x00,
  0x00, 0xf8, 0x03, 0x00, 0x00, 0xf8, 0x03, 0x00, 0x00, 0xf8, 0x03, 0x00,
  0x00, 0xfc, 0x07, 0x00, 0x00, 0xfe, 0x0f, 0x00, 0x00, 0xff, 0x1f, 0x00,
  0x00, 0x00, 0x00, 0x00, };
